<!--
  Juris.AI Apple Touch Icon
  180x180 version matching the exact brand logo design
-->
<svg xmlns="http://www.w3.org/2000/svg" viewBox="0 0 180 180" fill="none">
  <!-- Brand gradient background -->
  <defs>
    <linearGradient id="brandGradient" x1="0%" y1="0%" x2="100%" y2="100%">
      <stop offset="0%" style="stop-color:#4F8EF7;stop-opacity:1" />
      <stop offset="50%" style="stop-color:#2563EB;stop-opacity:1" />
      <stop offset="100%" style="stop-color:#1E40AF;stop-opacity:1" />
    </linearGradient>
    <filter id="appleShadow" x="-20%" y="-20%" width="140%" height="140%">
      <feDropShadow dx="0" dy="6" stdDeviation="6" flood-color="rgba(0,0,0,0.25)"/>
    </filter>
  </defs>
  
  <!-- Rounded background with brand gradient -->
  <rect x="5" y="5" width="170" height="170" rx="35" ry="35" fill="url(#brandGradient)" filter="url(#appleShadow)" />
  
  <!-- Scale of Justice icon - larger version for Apple Touch Icon -->
  <g fill="white" stroke="white" stroke-width="5" stroke-linecap="round" stroke-linejoin="round">
    <!-- Central pillar/pole -->
    <line x1="90" y1="45" x2="90" y2="135" stroke-width="6" />
    
    <!-- Top crossbar -->
    <line x1="70" y1="45" x2="110" y2="45" stroke-width="5" />
    
    <!-- Scale beam -->
    <line x1="50" y1="70" x2="130" y2="70" stroke-width="5" />
    
    <!-- Left scale pan -->
    <circle cx="50" cy="85" r="16" fill="none" stroke="white" stroke-width="4" />
    <line x1="34" y1="85" x2="66" y2="85" stroke-width="4" />
    
    <!-- Right scale pan -->
    <circle cx="130" cy="85" r="16" fill="none" stroke="white" stroke-width="4" />
    <line x1="114" y1="85" x2="146" y2="85" stroke-width="4" />
    
    <!-- Left chain -->
    <line x1="50" y1="70" x2="50" y2="69" stroke-width="4" />
    <line x1="50" y1="72" x2="50" y2="77" stroke-width="4" />
    
    <!-- Right chain -->
    <line x1="130" y1="70" x2="130" y2="69" stroke-width="4" />
    <line x1="130" y1="72" x2="130" y2="77" stroke-width="4" />
    
    <!-- Base -->
    <rect x="70" y="130" width="40" height="8" rx="4" fill="white" />
  </g>
</svg>
